<svg xmlns="http://www.w3.org/2000/svg" id="Layer_1" data-name="Layer 1" viewBox="0 0 16.81 29.78"><defs><style>.cls-1{fill:none;stroke:#28653a;stroke-miterlimit:10;}</style></defs><path class="cls-1" d="M8.69,7.41a36.25,36.25,0,0,0,0,15,2.37,2.37,0,0,1,1.57-.59h1.23a2.39,2.39,0,0,1,2.39,2.38v2.1A2.74,2.74,0,0,1,13,28a5.11,5.11,0,0,1-3.54,1.3c-2.23,0-4.09-1.2-4.41-2.77H5A33.34,33.34,0,0,1,5,3.25H5C5.35,1.68,7.2.47,9.43.47A5.12,5.12,0,0,1,13,1.75a2.74,2.74,0,0,1,.92,2V5.62A2.39,2.39,0,0,1,11.49,8H10.26A2.37,2.37,0,0,1,8.69,7.41Z"></path></svg>